<?xml version="1.0" encoding="UTF-8"?>
<svg width="19px" height="20px" viewBox="0 0 19 20" version="1.1" xmlns="http://www.w3.org/2000/svg" xmlns:xlink="http://www.w3.org/1999/xlink">
    <!-- Generator: Sketch 53.2 (72643) - https://sketchapp.com -->
    <title>delete</title>
    <desc>Created with Sketch.</desc>
    <g id="Page-1" stroke="none" stroke-width="1" fill="none" fill-rule="evenodd">
        <g id="Desktop-HD" transform="translate(-611.000000, -341.000000)" fill="#C02B2B" fill-rule="nonzero">
            <g id="Group-4" transform="translate(583.000000, 341.000000)">
                <g id="delete" transform="translate(28.000000, 0.000000)">
                    <path d="M17.6923077,3.07692308 L13.0769231,3.07692308 L13.0769231,2.30769231 C13.0769231,1 12.0769231,0 10.7692308,0 L7.69230769,0 C6.38461538,0 5.38461538,1 5.38461538,2.30769231 L5.38461538,3.07692308 L0.769230769,3.07692308 C0.307692308,3.07692308 0,3.38461538 0,3.84615385 C0,4.30769231 0.307692308,4.61538462 0.769230769,4.61538462 L1.53846154,4.61538462 L1.53846154,16.1538462 C1.53846154,18.3076923 3.23076923,20 5.38461538,20 L13.0769231,20 C15.2307692,20 16.9230769,18.3076923 16.9230769,16.1538462 L16.9230769,4.61538462 L17.6923077,4.61538462 C18.1538462,4.61538462 18.4615385,4.30769231 18.4615385,3.84615385 C18.4615385,3.38461538 18.1538462,3.07692308 17.6923077,3.07692308 Z M6.92307692,2.30769231 C6.92307692,1.84615385 7.23076923,1.53846154 7.69230769,1.53846154 L10.7692308,1.53846154 C11.2307692,1.53846154 11.5384615,1.84615385 11.5384615,2.30769231 L11.5384615,3.07692308 L6.92307692,3.07692308 L6.92307692,2.30769231 Z M15.3846154,16.1538462 C15.3846154,17.4615385 14.3846154,18.4615385 13.0769231,18.4615385 L5.38461538,18.4615385 C4.07692308,18.4615385 3.07692308,17.4615385 3.07692308,16.1538462 L3.07692308,4.61538462 L15.3846154,4.61538462 L15.3846154,16.1538462 Z M8.46153846,14.6153846 L8.46153846,8.46153846 C8.46153846,8 8.76923077,7.69230769 9.23076923,7.69230769 C9.69230769,7.69230769 10,8 10,8.46153846 L10,14.6153846 C10,15.0769231 9.69230769,15.3846154 9.23076923,15.3846154 C8.76923077,15.3846154 8.46153846,15.0769231 8.46153846,14.6153846 Z M6.15384615,7.69230769 C6.61538462,7.69230769 6.92307692,8 6.92307692,8.46153846 L6.92307692,14.6153846 C6.92307692,15.0769231 6.61538462,15.3846154 6.15384615,15.3846154 C5.69230769,15.3846154 5.38461538,15.0769231 5.38461538,14.6153846 L5.38461538,8.46153846 C5.38461538,8 5.69230769,7.69230769 6.15384615,7.69230769 Z M11.5384615,14.6153846 L11.5384615,8.46153846 C11.5384615,8 11.8461538,7.69230769 12.3076923,7.69230769 C12.7692308,7.69230769 13.0769231,8 13.0769231,8.46153846 L13.0769231,14.6153846 C13.0769231,15.0769231 12.7692308,15.3846154 12.3076923,15.3846154 C11.8461538,15.3846154 11.5384615,15.0769231 11.5384615,14.6153846 Z" id="Shape"></path>
                </g>
            </g>
        </g>
    </g>
</svg>