<?xml version="1.0" encoding="UTF-8"?>
<svg width="18px" height="18px" viewBox="0 0 18 18" version="1.1" xmlns="http://www.w3.org/2000/svg" xmlns:xlink="http://www.w3.org/1999/xlink">
    <!-- Generator: Sketch 53.2 (72643) - https://sketchapp.com -->
    <title>edit</title>
    <desc>Created with Sketch.</desc>
    <g id="Page-1" stroke="none" stroke-width="1" fill="none" fill-rule="evenodd">
        <g id="Desktop-HD" transform="translate(-583.000000, -343.000000)" fill="#465F94" fill-rule="nonzero">
            <g id="Group-4" transform="translate(583.000000, 341.000000)">
                <g id="edit" transform="translate(0.000000, 2.000000)">
                    <path d="M9,12 L6.75,12 C6.3,12 6,11.7 6,11.25 L6,9 C6,8.775 6.075,8.625 6.225,8.475 L14.175,0.675 C15.15,-0.15 16.575,-0.075 17.4,0.9 C18.075,1.725 18.075,3 17.4,3.825 L9.525,11.775 C9.375,11.925 9.225,12 9,12 Z M7.5,10.5 L8.7,10.5 L16.275,2.775 C16.425,2.55 16.425,2.1 16.275,1.875 C16.05,1.575 15.525,1.575 15.225,1.8 L7.5,9.3 L7.5,10.5 Z M18,14.25 L18,8.25 C18,7.8 17.7,7.5 17.25,7.5 C16.8,7.5 16.5,7.8 16.5,8.25 L16.5,14.25 C16.5,15.525 15.525,16.5 14.25,16.5 L3.75,16.5 C2.475,16.5 1.5,15.525 1.5,14.25 L1.5,3.75 C1.5,2.475 2.475,1.5 3.75,1.5 L9.75,1.5 C10.2,1.5 10.5,1.2 10.5,0.75 C10.5,0.3 10.2,0 9.75,0 L3.75,0 C1.65,0 0,1.65 0,3.75 L0,14.25 C0,16.35 1.65,18 3.75,18 L14.25,18 C16.35,18 18,16.35 18,14.25 Z" id="Shape"></path>
                </g>
            </g>
        </g>
    </g>
</svg>