<?xml version="1.0" encoding="UTF-8"?>
<svg width="20px" height="20px" viewBox="0 0 20 20" version="1.1" xmlns="http://www.w3.org/2000/svg" xmlns:xlink="http://www.w3.org/1999/xlink">
    <!-- Generator: Sketch 53.2 (72643) - https://sketchapp.com -->
    <title>OK</title>
    <desc>Created with Sketch.</desc>
    <g id="Page-1" stroke="none" stroke-width="1" fill="none" fill-rule="evenodd">
        <g id="Desktop-HD" transform="translate(-392.000000, -410.000000)" fill-rule="nonzero">
            <g id="Group" transform="translate(392.000000, 409.000000)">
                <g id="OK" transform="translate(0.000000, 1.000000)">
                    <path d="M14.2947368,0 C17.4526316,0 20,2.54736842 20,5.70526316 L20,14.2947368 C20,17.4526316 17.4315789,20 14.2947368,20 L5.70526316,20 C2.54736842,20 0,17.4315789 0,14.2947368 L0,5.70526316 C0,2.54736842 2.54736842,0 5.70526316,0 L14.2947368,0 Z" id="Shape" fill="#465F94"></path>
                    <path d="M13.4824305,6.99998169 L9.40045068,11.5252462 L7.21514836,9.38382641 C6.84405928,9.02018908 6.22557749,9.02018908 5.83387236,9.38382641 C5.46278329,9.74746374 5.46278329,10.353526 5.83387236,10.7373654 L8.76135283,13.6060599 C8.94689736,13.7878785 9.19429008,13.8888889 9.4416828,13.8888889 C9.46229886,13.8888889 9.46229886,13.8888889 9.48291491,13.8888889 C9.75092369,13.8888889 9.99831641,13.7676764 10.1838609,13.5656557 L14.9461707,8.25251027 C15.2966437,7.84846879 15.2554116,7.24240658 14.8637065,6.89897132 C14.4513853,6.55553606 13.8329035,6.59594021 13.4824305,6.99998169 Z" id="Path" fill="#FFFFFF"></path>
                </g>
            </g>
        </g>
    </g>
</svg>